<svg height="475pt" viewBox="0 -34 475.07632 475" width="475pt" xmlns="http://www.w3.org/2000/svg"><path d="m472.734375 200.28125-50.90625-50.914062 39.601563-39.597657c3.125-3.125 3.125-8.1875 0-11.3125l-79.199219-79.199219c-3.125-3.125-8.1875-3.125-11.3125 0l-39.601563 39.597657-11.308594-11.3125 11.308594-11.316407c3.125-3.125 3.125-8.191406 0-11.3125l-22.628906-22.625c-3.175781-3-8.140625-3-11.3125 0l-158.402344 158.398438c-3.121094 3.125-3.121094 8.1875 0 11.3125l22.632813 22.625c3.125 3.121094 8.1875 3.121094 11.3125 0l11.3125-11.320312 50.222656 50.222656-78.0625 20.929687c-13.992187-16.425781-36.15625-23.382812-57.023437-17.902343-2.054688.542968-3.808594 1.886718-4.871094 3.726562-1.066406 1.839844-1.355469 4.027344-.800782 6.078125l24.796876 92.714844c.9375 3.5 4.105468 5.933593 7.730468 5.933593.695313-.007812 1.390625-.101562 2.0625-.277343 20.425782-5.503907 35.996094-22.0625 40.242188-42.785157l111.496094-22.824218 56.917968 56.917968c3.125 3.125 8.1875 3.125 11.3125 0l124.480469-124.445312c3.121094-3.125 3.121094-8.1875 0-11.3125zm-96.160156-164.054688 67.878906 67.886719-33.941406 33.9375-67.882813-67.882812zm-209.304688 141.421876-11.3125-11.3125 147.074219-147.078126 11.320312 11.3125zm-35.566406 148.800781-20.273437-75.710938c14.027343-.824219 27.460937 5.742188 35.433593 17.3125 2.546875 3.75 4.441407 7.910157 5.597657 12.292969 1.261718 4.597656 1.660156 9.386719 1.175781 14.128906-1.285157 13.730469-9.585938 25.816406-21.933594 31.953125zm134.789063-60.863281-96.902344 19.816406c0-.175782-.070313-.34375-.097656-.519532-.300782-2.9375-.835938-5.839843-1.597657-8.691406-.695312-2.578125-1.566406-5.105468-2.601562-7.566406l82.210937-22.03125zm76.136718 53.488281-147.078125-147.089844 113.144531-113.128906 147.070313 147.082031zm0 0"/><path d="m98.015625 347.136719c-2.382813-1.113281-5.15625-.984375-7.425781.34375-7.960938 4.65625-26.910156 16.496093-31.199219 25.761719-5.46875 11.984374-.253906 26.136718 11.6875 31.707031 11.9375 5.570312 26.132813.476562 31.808594-11.414063 4.328125-9.269531 1.207031-31.398437-.335938-40.476562-.445312-2.601563-2.140625-4.816406-4.535156-5.921875zm-9.664063 39.640625c-1.871093 3.996094-6.625 5.726562-10.625 3.863281-1.933593-.890625-3.433593-2.515625-4.164062-4.519531-.730469-2-.636719-4.207032.265625-6.136719 4.160156-4.808594 9.058594-8.925781 14.515625-12.191406 1.015625 6.285156 1.015625 12.695312.007812 18.984375zm0 0"/><path d="m45.191406 330.511719c-9.066406 1.664062-30.921875 6.296875-38.160156 13.527343-9.375 9.375-9.375 24.574219 0 33.945313 9.371094 9.375 24.570312 9.375 33.941406 0 7.203125-7.238281 11.867188-29.09375 13.53125-38.160156.472656-2.585938-.355468-5.238281-2.214844-7.097657-1.859374-1.859374-4.511718-2.6875-7.097656-2.214843zm-15.539062 36.167969c-3.125 3.128906-8.191406 3.128906-11.316406 0-3.128907-3.125-3.128907-8.191407 0-11.320313 5.554687-3.089844 11.5625-5.28125 17.804687-6.488281-1.207031 6.242187-3.394531 12.253906-6.488281 17.808594zm0 0"/><path d="m40.582031 309.328125c2.792969 0 5.566407-.488281 8.191407-1.445313 9.601562-3.496093 23.046874-21.355468 28.375-28.867187 1.523437-2.140625 1.898437-4.898437 1-7.367187-.902344-2.472657-2.957032-4.34375-5.503907-5.007813-8.910156-2.320313-30.679687-7.359375-40.292969-3.863281-10.949218 3.984375-17.453124 15.257812-15.425781 26.730468 2.03125 11.472657 12.003907 19.832032 23.65625 19.820313zm-7.273437-27.375c.890625-1.925781 2.511718-3.414063 4.503906-4.136719.96875-.246094 1.96875-.351562 2.96875-.3125 5.347656.214844 10.671875.867188 15.914062 1.953125-3.726562 5.148438-8.25 9.667969-13.402343 13.390625-3.039063 1.105469-6.445313.269532-8.628907-2.113281-2.183593-2.382813-2.71875-5.851563-1.355468-8.78125zm0 0"/></svg>